<?xml version="1.0" standalone="no"?>
<!DOCTYPE svg PUBLIC "-//W3C//DTD SVG 20010904//EN"
 "http://www.w3.org/TR/2001/REC-SVG-20010904/DTD/svg10.dtd">
<svg version="1.0" xmlns="http://www.w3.org/2000/svg"
 width="1999.304091pt" height="845.763540pt" viewBox="0 0 1999.304091 845.763540"
 preserveAspectRatio="xMidYMid meet">
<metadata>
Created by potrace 1.12, written by Peter Selinger 2001-2015
</metadata>
<g transform="translate(-0.252049,845.900989) scale(0.100000,-0.100000)"
fill="#000000" stroke="none">
<path d="M7142 8454 c-30 -14 -32 -42 -7 -93 35 -69 41 -131 20 -211 -44 -169
-191 -587 -455 -1290 -208 -553 -228 -611 -335 -962 -201 -657 -396 -1375
-520 -1913 l-37 -160 -185 -230 c-138 -171 -253 -332 -453 -630 -346 -517
-510 -738 -487 -657 9 34 228 761 287 955 84 275 110 408 117 593 5 121 2 165
-11 227 -42 187 -154 326 -337 416 -104 51 -269 101 -335 101 -46 0 -83 -19
-90 -47 -4 -13 1 -51 10 -84 16 -56 16 -69 1 -207 -30 -270 -80 -501 -210
-987 -158 -589 -219 -953 -220 -1310 0 -196 1 -201 26 -256 66 -141 181 -212
366 -226 115 -8 165 7 227 71 87 90 313 378 492 628 171 237 219 308 332 493
253 413 335 545 338 543 1 -2 -15 -107 -36 -233 -53 -317 -78 -521 -97 -790
-14 -193 -14 -259 -4 -410 23 -368 97 -554 296 -750 86 -85 156 -131 256 -172
64 -26 186 -41 234 -29 26 7 27 9 21 49 -4 23 -27 114 -51 202 -94 339 -112
482 -95 778 19 358 62 654 151 1047 51 224 180 701 354 1310 13 47 76 272 140
500 64 228 154 530 200 670 205 624 489 1573 575 1925 88 356 103 487 71 606
-67 257 -306 521 -484 535 -29 2 -58 1 -65 -2z m7 -1956 c0 -7 -4 -22 -9 -33
-7 -17 -9 -15 -9 13 -1 17 4 32 9 32 6 0 10 -6 9 -12z m-44 -118 c-9 -16 -17
-30 -20 -30 -2 0 1 14 6 30 6 17 15 30 20 30 5 0 3 -13 -6 -30z m-100 -352
c-67 -251 -121 -433 -262 -883 -206 -662 -232 -758 -472 -1740 -110 -453 -134
-565 -186 -877 -36 -215 -53 -294 -61 -286 -11 12 64 521 117 788 84 422 125
579 495 1890 198 700 391 1306 411 1287 2 -3 -16 -83 -42 -179z m-1234 -2332
c10 6 8 -8 -12 -86 -8 -34 -116 -177 -125 -167 -5 5 52 114 99 190 16 26 28
50 25 52 -5 5 -343 -485 -774 -1120 -220 -325 -309 -444 -322 -430 -8 7 49 96
147 230 52 72 159 229 236 350 78 121 176 273 218 337 42 65 102 159 134 210
31 51 81 125 110 163 78 102 247 287 251 275 2 -6 8 -7 13 -4z m-100 -355
c-11 -23 -18 -49 -15 -58 4 -13 3 -14 -3 -5 -6 7 -17 10 -28 6 -14 -6 -16 -4
-9 7 59 95 96 128 55 50z m-990 -206 c-33 -116 -102 -363 -154 -550 -53 -187
-119 -429 -148 -537 -29 -109 -57 -198 -62 -198 -27 0 50 314 183 745 28 94
74 253 100 355 27 102 56 208 65 235 20 60 67 167 71 162 2 -1 -23 -97 -55
-212z m792 -100 c-9 -19 -21 -35 -26 -35 -5 0 -3 10 5 23 8 12 18 28 22 35 15
26 15 10 -1 -23z m-323 -412 c-1 -14 -59 -77 -66 -71 -7 8 15 50 35 65 18 14
31 16 31 6z m-117 -168 c-17 -23 -33 -32 -33 -18 0 10 32 43 42 43 5 0 1 -11
-9 -25z"/>
<path d="M14855 8453 c-34 -27 -36 -40 -9 -87 43 -77 43 -146 -1 -296 -47
-161 -165 -492 -377 -1060 -295 -790 -316 -850 -478 -1400 -317 -1074 -551
-2054 -664 -2785 -60 -384 -70 -509 -70 -860 -1 -308 1 -337 22 -434 29 -131
70 -239 121 -316 126 -191 295 -327 457 -369 67 -17 171 -21 193 -7 19 12 10
62 -43 251 -88 313 -107 461 -95 750 15 357 75 750 178 1181 82 345 587 2127
694 2454 53 160 102 313 110 340 8 28 69 226 135 440 320 1035 419 1461 383
1638 -30 140 -112 286 -231 408 -60 61 -104 96 -149 119 -63 31 -156 49 -176
33z m5 -1960 c0 -10 -5 -25 -10 -33 -7 -11 -10 -7 -10 18 0 17 5 32 10 32 6 0
10 -8 10 -17z m-42 -114 c-6 -16 -13 -28 -15 -25 -8 8 6 56 17 56 5 0 5 -13
-2 -31z m-83 -285 c-59 -221 -90 -331 -167 -584 -44 -146 -100 -328 -125 -405
-128 -399 -220 -733 -373 -1350 -183 -740 -211 -864 -270 -1210 -49 -287 -50
-294 -62 -301 -6 -4 -8 1 -5 12 3 11 8 46 12 79 38 366 131 853 250 1320 58
226 396 1421 515 1821 75 252 212 670 230 705 23 41 21 9 -5 -87z"/>
<path d="M5350 7880 c-583 -34 -1131 -113 -1861 -270 -238 -52 -507 -113
-1104 -254 -881 -207 -1206 -272 -1485 -296 -275 -25 -570 19 -653 97 -16 15
-52 74 -79 131 -26 56 -52 102 -56 102 -16 0 -71 -66 -87 -103 -25 -60 -30
-179 -11 -277 57 -302 312 -482 743 -522 192 -18 372 3 883 103 252 49 746
158 934 205 76 19 140 33 143 31 2 -3 -68 -225 -155 -493 -88 -269 -226 -696
-306 -949 -81 -253 -150 -467 -155 -475 -5 -10 -44 -21 -112 -32 -345 -58
-516 -96 -632 -140 -46 -18 -77 -35 -74 -41 34 -91 33 -88 7 -109 l-25 -20 33
-59 c31 -57 32 -60 16 -84 -9 -14 -14 -29 -10 -32 6 -6 658 111 692 124 10 3
14 -2 14 -19 0 -24 -4 -26 -136 -47 -207 -35 -533 -97 -540 -103 -3 -3 5 -30
17 -58 l23 -53 90 6 c50 3 156 17 236 31 80 13 173 27 208 29 54 5 62 3 62
-13 0 -22 -33 -185 -104 -505 -159 -727 -192 -1073 -140 -1485 37 -295 139
-583 276 -777 98 -139 249 -283 299 -283 12 0 19 11 24 39 9 54 0 108 -50 306
-38 149 -44 193 -54 352 -17 272 3 572 64 939 39 241 72 390 243 1119 27 116
60 260 72 320 13 61 26 113 29 117 5 6 250 37 701 89 638 73 760 94 875 151
38 19 105 75 105 88 0 9 -70 41 -79 36 -7 -5 -1014 -140 -1236 -167 -49 -6
-123 -15 -163 -20 -91 -11 -122 -11 -122 -1 0 18 93 32 825 123 373 46 562 78
683 114 82 26 106 45 55 45 -16 1 -39 7 -53 15 l-25 13 30 12 c40 15 65 39 65
62 0 17 -10 18 -128 18 -146 0 -436 -26 -789 -70 -258 -32 -281 -34 -246 -20
69 28 422 72 723 90 199 13 301 28 389 60 43 16 61 28 61 40 0 16 -15 19 -127
25 -267 16 -489 -1 -1049 -80 -338 -47 -334 -47 -334 -42 0 3 62 186 139 408
151 440 298 882 358 1079 34 112 38 136 37 230 0 91 -6 127 -30 212 -3 11 5
22 25 33 26 13 579 130 1116 236 366 72 682 118 967 140 189 15 518 7 613 -15
102 -23 100 -21 76 -55 -42 -59 -71 -135 -71 -187 0 -42 9 -70 46 -143 44 -88
45 -93 30 -117 -16 -24 -16 -24 17 -24 48 0 131 45 172 93 80 93 115 212 115
385 0 336 -124 516 -396 578 -83 19 -434 26 -654 14z m-190 -136 c0 -11 -17
-14 -82 -13 -88 1 -87 3 7 23 65 13 75 12 75 -10z m273 19 c-29 -2 -78 -2
-110 0 -32 2 -8 3 52 3 61 0 87 -1 58 -3z m-614 -67 c-5 -4 -244 -45 -514 -86
-302 -47 -397 -66 -675 -135 -301 -75 -566 -127 -545 -107 32 31 558 149 1165
262 216 40 588 83 569 66z m176 -96 c-3 -5 -16 -10 -28 -9 -21 0 -21 1 -2 9
28 12 37 12 30 0z m-318 -41 c-20 -12 -218 -50 -251 -48 -34 2 62 28 159 43
114 17 114 17 92 5z m868 -39 c-38 -5 -128 -13 -200 -20 -424 -37 -919 -124
-1691 -295 -210 -47 -387 -85 -393 -85 -6 0 -11 8 -11 19 0 75 1157 284 2130
384 19 2 80 4 135 4 l100 0 -70 -7z m-1205 -19 c-8 -5 -40 -11 -70 -15 -30 -4
-66 -10 -80 -13 -38 -9 -12 13 30 25 44 13 141 15 120 3z m-798 -162 c-25 -12
-58 -19 -80 -17 -36 3 -36 3 23 20 83 22 110 21 57 -3z m-152 -35 c0 -11 -67
-32 -125 -39 -109 -13 -35 14 118 44 4 0 7 -1 7 -5z m-600 -13 c-18 -11 -165
-43 -325 -71 -66 -12 -232 -46 -368 -76 -239 -52 -326 -67 -222 -38 84 23 520
124 690 160 155 32 258 43 225 25z m-285 -211 c-11 -5 -42 -9 -70 -9 -37 0
-45 3 -30 9 11 5 43 9 70 9 37 0 45 -3 30 -9z m-165 -24 c-14 -7 -36 -16 -50
-20 -14 -3 -7 3 15 14 45 22 74 27 35 6z m315 -57 c-36 -16 -647 -167 -865
-213 -290 -61 -734 -126 -772 -114 -7 3 66 17 162 32 220 35 605 112 1095 221
387 85 415 91 380 74z m-1520 -49 c-3 -5 -15 -10 -26 -10 -10 0 -19 5 -19 10
0 6 12 10 26 10 14 0 23 -4 19 -10z m675 -19 c0 -5 -11 -11 -25 -13 -24 -5
-32 2 -18 15 9 10 43 8 43 -2z m1180 -2031 c0 -5 -19 -10 -42 -9 -37 1 -39 2
-18 9 36 12 60 12 60 0z m-175 -20 c-3 -5 -13 -10 -21 -10 -8 0 -14 5 -14 10
0 6 9 10 21 10 11 0 17 -4 14 -10z m1083 3 c-10 -2 -28 -2 -40 0 -13 2 -5 4
17 4 22 1 32 -1 23 -4z m-183 -23 c-11 -5 -27 -9 -35 -9 -13 -1 -13 0 0 9 8 5
24 9 35 9 l20 0 -20 -9z m-372 -47 c-13 -2 -33 -2 -45 0 -13 2 -3 4 22 4 25 0
35 -2 23 -4z m-170 -20 c-13 -2 -33 -2 -45 0 -13 2 -3 4 22 4 25 0 35 -2 23
-4z m-1243 -53 c0 -13 -109 -45 -200 -59 -41 -6 -90 -14 -108 -17 -20 -3 -32
-1 -28 4 8 13 153 52 251 67 44 7 81 13 83 14 1 1 2 -3 2 -9z m-415 -90 c3 -5
0 -10 -7 -10 -7 0 -24 -3 -38 -7 -22 -6 -24 -5 -11 10 15 19 46 23 56 7z"/>
<path d="M8999 7707 c-64 -42 -324 -500 -484 -852 -65 -143 -166 -318 -276
-480 -136 -200 -171 -241 -210 -248 -19 -3 -104 -17 -189 -32 -195 -33 -377
-73 -412 -91 -33 -17 -56 -49 -64 -92 -6 -28 -3 -33 30 -53 30 -17 36 -27 36
-54 0 -26 10 -41 48 -77 56 -53 128 -103 180 -126 30 -13 65 -16 197 -13 148
3 162 2 185 -17 24 -19 24 -21 12 -78 -7 -33 -26 -131 -42 -219 -16 -88 -55
-284 -85 -435 -31 -151 -69 -372 -86 -490 -16 -118 -38 -271 -49 -340 -163
-1053 -235 -1739 -261 -2488 -23 -630 13 -957 128 -1186 66 -131 153 -198 346
-266 45 -16 103 -38 127 -49 l44 -20 24 35 c23 34 25 35 43 18 14 -12 30 -15
66 -12 60 6 100 25 127 60 l20 28 -37 187 c-57 286 -70 441 -63 738 13 558 68
1052 212 1903 150 888 287 1572 426 2117 60 239 187 687 196 697 4 3 102 20
219 37 599 87 895 172 1043 298 l42 36 -49 16 c-43 14 -51 22 -77 74 -34 68
-126 157 -182 176 -93 31 -436 23 -609 -14 -77 -16 -195 -20 -195 -6 0 5 34
107 76 227 42 121 112 327 156 458 95 284 95 286 0 362 -50 40 -61 44 -94 40
l-37 -6 -3 42 c-3 41 -5 43 -52 61 l-49 18 -29 -27 c-32 -31 -34 -25 -13 36
19 55 20 53 -16 48 -23 -4 -34 1 -49 19 -10 12 -20 23 -22 23 -2 0 -28 -30
-57 -66 -29 -36 -55 -64 -57 -61 -2 2 7 29 21 60 l25 57 -50 25 c-61 31 -87
31 -131 2z m228 -949 c-141 -404 -153 -433 -184 -447 -15 -7 -30 -8 -35 -3
-14 14 86 296 196 552 34 76 104 185 114 176 2 -3 -39 -127 -91 -278z m-373
-314 c-15 -69 -65 -176 -72 -154 -12 35 53 220 77 220 5 0 2 -30 -5 -66z m150
-783 c-16 -15 -16 -15 -10 2 3 11 9 31 13 45 l8 27 3 -29 c2 -18 -3 -35 -14
-45z m-179 -148 c-140 -548 -279 -1184 -384 -1758 -165 -904 -291 -1965 -327
-2765 -5 -113 -9 -148 -16 -130 -15 38 -2 813 16 1020 39 434 92 845 201 1555
38 248 141 828 200 1120 87 429 168 764 266 1098 l20 67 38 0 39 0 -53 -207z
m-344 -373 c-217 -1022 -257 -1240 -381 -2065 -55 -370 -59 -390 -66 -382 -8
7 23 285 61 555 119 835 317 1878 426 2247 30 100 62 182 66 170 2 -6 -46
-242 -106 -525z m-180 289 c-82 -341 -165 -775 -276 -1454 -42 -253 -78 -464
-80 -470 -13 -26 9 195 41 414 64 442 181 1068 260 1386 37 148 83 299 90 292
2 -2 -14 -78 -35 -168z m628 -57 c-7 -28 -16 -49 -21 -46 -10 6 -2 58 14 87
16 31 19 13 7 -41z m-45 -154 c-13 -38 -19 -47 -22 -32 -4 24 25 100 34 91 3
-3 -2 -30 -12 -59z m-94 -408 c0 -11 -4 -20 -10 -20 -5 0 -10 9 -10 20 0 11 5
20 10 20 6 0 10 -9 10 -20z m-15 -92 c-11 -36 -25 -45 -25 -17 0 27 7 39 22
39 5 0 6 -10 3 -22z m-31 -102 c-7 -30 -24 -35 -24 -8 0 18 20 45 27 38 2 -2
1 -15 -3 -30z m-44 -207 c0 -10 -4 -19 -10 -19 -5 0 -10 12 -10 26 0 14 4 23
10 19 6 -3 10 -15 10 -26z m-33 -136 c-3 -10 -5 -2 -5 17 0 19 2 27 5 18 2
-10 2 -26 0 -35z m-21 -121 c-12 -11 -17 7 -9 34 l8 29 3 -28 c2 -16 1 -31 -2
-35z m-21 -92 c0 -16 -3 -30 -7 -30 -5 0 -8 14 -8 30 0 17 3 30 8 30 4 0 7
-13 7 -30z m-15 -137 c0 -7 -4 -13 -10 -13 -5 0 -10 12 -10 28 0 21 2 24 10
12 5 -8 10 -21 10 -27z m-34 -141 c-11 -10 -14 3 -8 33 l7 30 3 -28 c2 -16 1
-31 -2 -35z m-43 -232 c3 -11 1 -23 -4 -26 -5 -3 -9 6 -9 20 0 31 6 34 13 6z
m-23 -145 c0 -14 -4 -25 -10 -25 -5 0 -10 11 -10 25 0 14 5 25 10 25 6 0 10
-11 10 -25z m-587 -42 c3 -5 -1 -46 -9 -93 -7 -47 -29 -206 -49 -354 -19 -148
-37 -272 -40 -274 -13 -13 -11 16 11 193 45 369 64 522 64 528 0 9 18 9 23 0z
m88 -946 c-13 -13 -15 53 -3 93 5 19 8 13 10 -29 2 -30 -2 -59 -7 -64z m-201
23 c0 -27 -4 -50 -10 -50 -5 0 -10 23 -10 50 0 28 5 50 10 50 6 0 10 -22 10
-50z m177 -172 c-2 -13 -4 -5 -4 17 -1 22 1 32 4 23 2 -10 2 -28 0 -40z m-220
-230 c-2 -18 -4 -6 -4 27 0 33 2 48 4 33 2 -15 2 -42 0 -60z"/>
<path d="M18905 7491 c-182 -110 -478 -770 -864 -1928 -267 -802 -623 -1991
-705 -2360 -56 -250 -79 -517 -57 -650 24 -137 105 -269 215 -347 61 -45 164
-96 189 -96 7 0 22 15 34 34 14 22 28 33 44 32 21 -1 26 7 42 69 143 552 400
1079 731 1504 97 125 292 325 397 408 254 199 548 308 712 262 46 -12 46 -17
12 -184 -130 -642 -546 -1303 -1031 -1639 -47 -32 -88 -56 -91 -53 -3 3 7 31
21 63 14 31 26 58 26 60 0 2 -15 -3 -32 -10 -18 -8 -44 -17 -58 -21 l-24 -8
18 27 c20 32 18 75 -5 89 -13 8 -27 1 -66 -31 -27 -23 -53 -42 -57 -42 -6 0
10 36 61 133 19 37 12 42 -29 21 -190 -97 -366 -328 -400 -523 -10 -59 -9 -77
6 -135 61 -224 352 -438 560 -412 149 19 354 132 571 317 447 379 767 1006
849 1664 34 278 30 353 -31 537 -108 327 -344 517 -593 477 -240 -37 -510
-202 -809 -494 -154 -150 -229 -238 -329 -385 -68 -100 -182 -227 -182 -203 0
6 57 179 126 384 257 764 453 1296 656 1787 182 442 287 708 345 882 52 153
56 171 55 252 -3 164 -44 301 -122 403 -21 27 -46 67 -56 87 -24 51 -75 63
-129 29z m335 -2851 c0 -5 -1 -10 -3 -10 -1 0 -17 -4 -35 -9 -39 -12 -41 -7
-4 13 32 18 42 19 42 6z m-130 -55 c0 -3 -73 -53 -162 -112 -126 -81 -189
-131 -278 -217 -233 -225 -283 -270 -268 -248 86 129 399 400 618 535 73 45
90 53 90 42z m-160 -243 c-8 -3 -36 -20 -62 -39 -49 -34 -63 -27 -29 14 23 28
58 42 85 35 15 -4 17 -7 6 -10z m-127 -89 c3 -5 -20 -25 -49 -45 -60 -41 -71
-32 -22 19 30 31 61 42 71 26z m-183 -183 c-46 -55 -50 -58 -50 -34 0 19 62
84 80 84 6 0 -7 -22 -30 -50z m110 47 c0 -1 -37 -38 -82 -82 -61 -60 -70 -66
-34 -25 58 66 116 120 116 107z m155 -1533 c-91 -91 -168 -164 -170 -162 -2 2
60 69 138 148 78 80 153 162 167 183 21 31 25 34 28 17 3 -15 -41 -65 -163
-186z m479 84 c-31 -61 -114 -178 -189 -266 -88 -104 -188 -192 -333 -289
-106 -72 -165 -99 -100 -46 209 171 459 416 581 571 27 34 51 62 53 62 3 0 -3
-15 -12 -32z"/>
<path d="M11130 6644 c-129 -35 -242 -138 -316 -289 -53 -109 -68 -193 -53
-304 23 -184 100 -323 271 -487 95 -91 176 -153 371 -284 77 -52 141 -100 144
-107 12 -30 -83 -438 -161 -701 -172 -573 -448 -1167 -761 -1637 -89 -134
-223 -310 -231 -303 -2 2 3 22 10 43 8 22 17 56 20 75 l7 35 -21 -24 c-11 -13
-20 -32 -20 -43 0 -30 -21 -63 -30 -48 -5 8 -14 -2 -26 -29 -12 -26 -26 -41
-38 -41 -12 0 -16 5 -12 15 4 11 -2 15 -24 15 -17 0 -30 5 -30 10 0 6 14 38
31 71 22 41 29 67 25 84 -9 36 -23 31 -47 -17 -46 -91 -108 -162 -125 -145 -3
3 10 29 29 58 38 60 60 119 55 146 -2 11 -14 -3 -33 -40 -64 -127 -191 -216
-321 -225 -69 -4 -71 -4 -96 27 -63 75 -93 219 -92 456 0 223 -1 220 107 228
254 20 513 112 747 265 94 62 248 205 317 295 63 82 128 208 159 312 24 80 27
106 27 230 0 123 -4 151 -27 230 -69 228 -212 396 -433 506 -68 34 -99 44
-135 43 -26 0 -50 -3 -54 -6 -3 -4 33 -77 80 -164 47 -87 84 -159 83 -160 -1
-1 -33 4 -72 12 -217 42 -459 -1 -658 -118 -305 -178 -635 -754 -706 -1233
-41 -280 -14 -500 86 -705 40 -81 61 -109 142 -191 82 -81 110 -102 191 -142
109 -53 175 -72 313 -88 159 -19 297 11 409 89 l53 36 152 -53 152 -52 59 40
c121 82 261 243 444 511 393 575 655 1129 792 1675 29 116 76 364 76 403 1 61
10 61 142 -5 333 -166 343 -264 96 -923 -362 -965 -503 -1455 -549 -1905 -34
-345 73 -756 255 -977 153 -185 333 -266 569 -255 128 5 221 30 285 77 73 52
95 114 73 198 -11 40 -14 42 -50 42 -25 0 -44 -7 -56 -20 -26 -29 -37 -25 -30
14 l7 33 -89 22 c-179 45 -160 34 -183 107 -62 203 -46 475 50 861 55 217 127
447 283 898 180 522 243 717 277 860 53 221 59 354 23 485 -64 233 -292 435
-873 775 -102 60 -188 113 -192 119 -4 6 -8 32 -8 57 0 49 -34 402 -51 534
-26 203 -104 370 -238 508 -129 135 -345 239 -485 236 -17 0 -56 -7 -86 -15z
m-185 -323 c-3 -12 -11 -19 -16 -16 -5 4 -3 14 3 25 15 24 22 19 13 -9z m511
-65 c64 -140 112 -440 105 -663 -2 -72 -17 -69 -100 15 -74 74 -108 129 -146
234 -56 154 -39 287 51 407 25 34 50 61 55 61 6 0 21 -24 35 -54z m-273 -26
c-16 -63 -33 -80 -33 -32 0 23 32 92 44 92 2 0 -3 -27 -11 -60z m592 -1617
c-63 -295 -205 -703 -335 -968 -44 -88 -91 -173 -105 -190 l-26 -30 15 35 c8
19 35 85 61 145 108 255 222 565 324 881 74 230 70 218 77 211 4 -3 -1 -41
-11 -84z m-1250 -350 c-81 -247 -348 -553 -590 -676 -52 -26 -155 -60 -162
-53 -8 8 30 140 62 221 129 318 389 582 655 666 l55 17 3 -47 c2 -30 -6 -74
-23 -128z m936 86 c-6 -24 -9 -28 -10 -12 -1 24 9 56 16 50 2 -3 0 -20 -6 -38z
m-23 -116 c-14 -53 -60 -165 -65 -160 -7 7 57 197 67 197 4 0 4 -17 -2 -37z
m-1574 -95 c-9 -18 -58 -103 -108 -188 -89 -150 -136 -239 -136 -259 0 -6 -5
-13 -11 -16 -16 -11 -1 59 33 147 33 87 118 227 185 306 50 58 64 62 37 10z
m2981 -10 c-32 -201 -48 -253 -367 -1188 -166 -485 -238 -760 -288 -1094 -11
-77 -22 -141 -24 -144 -3 -2 -8 22 -11 53 -13 101 14 343 56 508 62 244 528
1676 614 1890 14 34 27 18 20 -25z m-3325 -12 c0 -16 -30 -50 -37 -42 -4 4 27
55 35 56 1 0 2 -6 2 -14z m2894 -133 c-19 -65 -124 -392 -234 -728 -109 -335
-218 -668 -241 -740 -42 -132 -98 -279 -105 -273 -8 9 90 334 252 826 96 293
204 626 241 740 64 201 100 292 114 292 4 0 -8 -53 -27 -117z m-1589 46 c-31
-87 -127 -240 -142 -225 -9 9 138 266 152 266 2 0 -2 -18 -10 -41z m1780 -71
c-35 -175 -104 -394 -228 -728 -97 -262 -157 -453 -248 -785 -76 -281 -106
-374 -96 -300 11 79 62 332 87 430 29 115 455 1380 473 1403 16 20 19 14 12
-20z m-1525 -565 c-12 -26 -24 -43 -27 -36 -5 13 36 98 44 90 2 -3 -5 -27 -17
-54z"/>
<path d="M4815 5919 c-86 -76 -173 -332 -182 -534 -4 -95 -1 -123 20 -205 51
-194 159 -393 277 -510 34 -33 74 -63 88 -66 15 -3 52 -15 82 -27 64 -25 134
-27 157 -4 15 14 15 27 -2 149 -28 204 -24 282 24 498 66 290 67 362 4 431
-28 31 -40 38 -59 33 -23 -6 -24 -4 -24 40 l0 45 -51 7 c-51 7 -51 7 -46 39 5
29 2 34 -35 54 l-40 21 -28 -20 c-37 -26 -40 -25 -40 10 0 20 -5 30 -15 30 -8
0 -24 9 -35 20 -28 28 -54 25 -95 -11z"/>
<path d="M16045 5030 c-219 -31 -487 -181 -696 -389 -223 -224 -417 -507 -589
-864 -146 -302 -211 -518 -214 -707 -1 -111 0 -117 32 -182 61 -125 216 -241
382 -287 121 -34 215 -24 329 32 121 61 217 146 425 377 133 148 407 432 412
427 2 -1 -20 -113 -47 -247 -61 -303 -103 -550 -124 -740 -22 -189 -25 -481
-6 -533 28 -81 98 -133 245 -183 38 -13 71 -24 74 -24 11 0 171 163 236 240
225 267 470 664 676 1095 78 163 92 195 86 195 -7 0 -86 -126 -100 -162 -9
-20 -22 -41 -29 -45 -7 -4 -23 -32 -37 -61 -13 -30 -26 -49 -28 -42 -6 16 -48
-60 -57 -100 -4 -18 -18 -49 -32 -69 -14 -20 -35 -56 -48 -81 -13 -25 -44 -76
-69 -113 -25 -38 -46 -75 -46 -82 0 -8 -13 -28 -30 -45 -16 -17 -30 -25 -30
-18 0 6 -13 -1 -30 -17 -28 -27 -61 -95 -64 -133 -3 -32 -60 -122 -75 -117 -8
3 -22 -2 -32 -11 -27 -24 -23 -7 11 55 17 30 29 55 28 57 -2 1 -59 -63 -127
-142 -68 -79 -126 -144 -128 -144 -2 0 4 15 13 33 46 88 140 226 305 448 161
216 258 353 284 399 18 34 -59 -49 -90 -96 -87 -130 -457 -584 -476 -584 -24
0 56 118 205 304 70 87 124 161 121 164 -3 4 -29 -20 -57 -53 -68 -80 -215
-225 -228 -225 -58 0 116 622 401 1433 149 425 155 457 87 490 l-33 16 -34
-67 c-18 -37 -76 -167 -127 -290 -51 -122 -98 -230 -103 -240 -23 -38 -8 12
40 139 56 148 171 481 167 484 -12 10 -48 14 -53 5 -13 -20 -25 -9 -23 21 4
42 -20 58 -62 42 -29 -11 -30 -10 -30 17 0 39 -13 44 -57 21 -50 -25 -133
-115 -212 -230 -67 -96 -111 -139 -466 -456 -98 -88 -251 -225 -339 -304 -147
-132 -294 -251 -309 -251 -17 0 -2 41 64 188 224 495 401 777 633 1008 136
135 230 203 384 277 l104 50 131 -36 c140 -38 147 -38 146 13 0 37 -18 63 -82
119 -199 174 -403 249 -602 221z m-345 -653 c0 -2 -33 -46 -72 -100 -203 -270
-406 -645 -564 -1039 -32 -82 -62 -148 -66 -148 -11 0 60 257 98 353 115 289
349 677 510 846 78 82 94 97 94 88z m-402 -41 c-13 -18 -53 -78 -90 -132 -36
-55 -126 -205 -198 -334 -133 -237 -166 -288 -135 -215 72 176 401 715 437
715 4 0 -2 -15 -14 -34z m1351 -208 c-12 -20 -14 -21 -17 -5 -2 10 2 25 9 34
18 21 23 0 8 -29z m-1449 -225 c-127 -201 -153 -234 -90 -118 50 93 191 308
197 301 3 -3 -45 -85 -107 -183z m1276 -647 c-9 -30 -21 -58 -28 -62 -7 -5 -9
-2 -6 7 3 8 13 38 23 67 22 70 32 60 11 -12z m0 -1244 c-22 -23 -29 -10 -9 18
11 16 18 19 21 11 2 -7 -3 -20 -12 -29z m-56 -67 c-7 -9 -15 -13 -18 -10 -3 2
1 11 8 20 7 9 15 13 18 10 3 -2 -1 -11 -8 -20z"/>
</g>
</svg>
