<svg id="Layer_1" data-name="Layer 1" xmlns="http://www.w3.org/2000/svg" viewBox="0 0 762.02 322.47"><defs><style>.cls-1{fill:#231f20;}</style></defs><title>logotipo_filterlab</title><path class="cls-1" d="M272.32,188c-1.34-2.68-3.69-5.7-3.69-9.06,0-2.68,2-6.38,3.69-8.05a48.86,48.86,0,0,0-15.44-2c-26.51,0-52.35,6.71-78.18,11.74L167,183c-1,.34-1.34,1-2.35,1a37.41,37.41,0,0,1,1.68,10.4c0,4.7-17.78,55.37-20.8,64.09,15.44-1.68,30.87-5,46.64-5,3.69,0,7.38.34,11.07.67v1.34c-2,.34-3.36,1.34-5.37,1.68-7,1.68-14.76,1.34-21.81,2a140,140,0,0,0-20.13,3.36c14.43-1.34,28.52-4,43-4h4c0,2.35-2,3.36-4,3.36l2.35,1.34h2.35c-4.36,4.7-55,8.05-61.07,10.4v.67c19.46-2,38.59-5,58.05-7.38v-.67l3,1.68c-2.35,5-13.76,6.38-18.46,7l-45.64,5.37c-6,29.53-15.77,58.72-15.77,88.92,0,4,.34,8.39.67,12.42.67,6,3.69,12.08,3.69,18.12a7.9,7.9,0,0,1-.67,2.68c-3-1-5.37-3.36-7.38-5.71-11.74-12.08-15.77-31.21-15.77-47.65,0-21.81,6.38-42.62,10.4-63.76-7.72,0-15.1,2.68-22.82,2.68l-2-4.36c8.72-1.68,17.45-3.36,26.17-4.7v-1.68l-26.84,5-.34-.67L90.12,280l-2.68-4.7,2-1.34-1.34-3.69c6-3.69,23.82-6,31.21-7.38,7.72-24.5,15.77-49.33,23.82-73.82-18.79,4.7-37.58,8.72-56.71,12.08A91,91,0,0,1,73,202.46c-15.44,0-33.56-6-33.56-24.16,0-4.36,0-8.05,4.36-10.74.67,1.68,3.36,7.72,4.36,8.72,3.36,3.69,14.43,4.36,19.13,4.36a122.58,122.58,0,0,0,24.83-3c26.17-5.37,52-12.08,78.18-17.78,29.19-6.38,58.05-11.07,87.92-11.07,17.11,0,25.17,6,25.17,23.82C283.4,180,279.71,190,271,190ZM74,195.41c24.5-1,48.32-8.05,72.14-14.09C122,186,98.51,192.39,74,195.41Zm3.36-10.07V185h-2v.34Zm3.36-.34a9.8,9.8,0,0,0,3-.67h-3Zm.34,5v.34h1Zm5.7-.67a3,3,0,0,0,1.68-.34h-2Zm5.37-1v-.67l-1.34.67Zm3.69,83.55c-.67,0-1,.34-1.34,1a14.25,14.25,0,0,0,3.69-.67C97.5,272.25,96.49,271.92,95.82,271.92Zm-.67-84.22a2,2,0,0,0,1.34-.34,2,2,0,0,1-1.34-.34ZM97.83,277v-.34H96.16V277Zm.67-89.59a1.23,1.23,0,0,0,1-.34Zm46-16.11c-3.69,0-39.93,8.72-45.64,10.4l28.86-6.38c6.38-1.34,13.09-2,19.46-4ZM98.84,271.92c3.36-.34,12.08-1.34,14.76-3.36A45,45,0,0,0,98.84,271.92Zm.67-76.84v.34h.34Zm2.68,81.2v-.34h-1v.34Zm3.36-1h-.34v.34h.34Zm3.69-89.93c-.67,0-1.34-.34-2-.34a.89.89,0,0,0-1,1Zm-2,8.72v-.34h-.34Zm1.34,80.53.67.34.67-.34a1.23,1.23,0,0,1-1-.34Zm4.36-1c0,.34,0,.34.34.67l.67-.34Zm5-5.37-.34-.67-1,.67Zm6.71-86.57c1.68-.34,3.69-.34,5-2Zm3.69,7.72V189h-.67Zm1.34-9.73a5.71,5.71,0,0,0,2.35.34,9.29,9.29,0,0,0,4.36-1Zm2.35,8.39h-.34l.34.34Zm10.07-2-.34-.34V186Zm1.34,90.6V277c.34,0,.34,0,.67-.34Zm2-12.75,2.68-.67h-3Zm1.34,4v.34h2v-.34Zm2-4.7h4.36v-1Zm5,4.36v-.34h-1v.34ZM202.19,158.5c-15.77,3-31.54,5.7-46.64,10.4,9.06-.34,23.49-5,33.22-7,12.42-2.35,25.17-3.69,37.58-6.38C218.3,156.49,210.25,156.82,202.19,158.5Zm-44.29,108v.34h3v-.34Zm4.36-94c2.35,0,5-.34,7-2a87.61,87.61,0,0,1-9.06,2Zm87.24-10.07c-12.75,0-77.18,9.4-86.57,14.43l.34,1.34c31.21-7,62.41-14.43,94.63-15.77ZM167.29,266.21v-.34h-3v.34Zm-2-85.9-.67.34h.67Zm.67-6.38h-.34l.34.34Zm4-3.69-.34.34H171a7.62,7.62,0,0,0,5.37-2Zm.67,95a16.34,16.34,0,0,0,4-.34h-4Zm3,8.05v-.34h-1l.34.34Zm7.72-9.06v-.67l-3.69,1.34Zm4-88.59h.34v-.34Zm3.36,87.92-.34-.34h-3v.34Zm-2.35,2.35.34.34v-.34Zm2.35,5.7v-.34h-.67v.34Zm1-97h-.67c0,.34.34.34.67.34Zm3,87.92v.34h1.68v-.34Zm1-88.59h-.67c.34.34.34.34.67.34Zm12.08-10.4a5.7,5.7,0,0,0-2.35-.34,13.88,13.88,0,0,0-6.38,1.68Zm13.42-2.68c-4.36.67-9.06,1-13.42,2.68C210.25,162.86,215.28,162.53,219.31,160.85Zm-3.69,9.06h-.34l.34.34Zm5.37-.67h-.34l.34.34Zm4.7-8.72a19.65,19.65,0,0,0,4.36-.67l-.34-.34Zm10.07-5.7v-1.34l-7,1.34Zm4-1.34v.34h8.39v-.34Z" transform="translate(-39.45 -126.96)"/><path class="cls-1" d="M270,295.74l2.68-2.68-.34,2,1-2h-.67l.67-1v1l.67-1.34h.34l1.34-2.35.67.34c-6,15.44-16.44,29.86-25.17,44-5,8.05-9.73,16.44-15.1,24.16-6.71,9.73-17.45,24.5-25.17,32.88-2,2-4,2.35-6.71,2.35-9.73,0-16.78-5.37-16.78-15.44,0-18.12,4.36-37.25,9.06-54.36,3.69-13.42,7-26.84,8.05-40.6v-1.34c0-1.68-1-3.36-1-5,0-1.34,2-2,3-2.35,14.76,2,26.84,9.73,26.84,25.84,0,12.75-4.36,24.16-8.05,36.24L218,360.84c0,.34-.34.34-.34.67a3.39,3.39,0,0,1,.34,1c9.4-11.74,17.45-24.83,25.84-37.25,5-7.38,11.07-14.09,16.44-21.14,3-3.69,5-8.72,8.72-12.08l-1.68,3,2.35-2.68c-5.37,9.06-12.08,17.45-16.44,27.18a50.36,50.36,0,0,0,6.38-8.39c3.36-5.7,5.7-12.75,10.74-17.45ZM204.2,379c5-19.46,10.74-38.92,16.11-58.39-4,7-5,15.1-7.38,22.82-3.36,11.75-7.72,23.49-9.4,35.57Zm22.48-155,1.68.34v2.35a6,6,0,0,0,2.35-1.68l3.36,1.68L233.4,229l4,.67V233l1.68-.34a6.92,6.92,0,0,1,3.36,5.7c0,8.05-3.69,15.1-3.69,23.15,0,4.36,1.34,9.06,1.34,13.42a5.41,5.41,0,0,1-3,1c-2.35,0-4-2-6.38-1.68-8.05-4.7-15.1-19.8-15.1-29.19,0-5,3.69-22.48,10.07-22.48Zm-7,141.94c13.42-19.8,26.84-39.6,40.6-59.39-5.37,5.71-11.07,11.41-14.76,17.79-5.7,9.4-12.08,18.46-17.78,27.85-3.69,5.71-8.39,10.74-11.41,16.78C217.29,367.89,219,366.88,219.64,365.88Zm1-49v2c.34-.34.34-1.34.67-2Zm11.41,37.92c-1.68.34-2.35,2-3,3.36Zm4-5.7c-1.68.33-3,1-3,3v.67ZM247.16,335a26.75,26.75,0,0,0,2.68-5.37,41,41,0,0,1-4,6.38Zm7.38-9.73,1-1a1.23,1.23,0,0,1-1-.34,33.87,33.87,0,0,0,2.35-5l-4,5.7,1.68-.67Zm6.38-11.74,1-1.68v-1.34a20,20,0,0,0-3,5l1.34-.67.67-1.34a2,2,0,0,1,.34,1.34,2,2,0,0,0,.34-1.34Zm.34,1.34h-.67a1.23,1.23,0,0,0-.34,1Zm.67-2.68v.67c.34-.34.34-.34.34-.67Zm2.68-4.36c0-1.34.67-2.35.67-3.69l-3,5.7,1.34-.67v1l.67-1h-.67Zm0,0v1l.67-1a2,2,0,0,1,.34-1.34h-.34c0,.34-.34,1,0,1.34Zm5.7-11.07-.34,1.34-1.34.34a4.14,4.14,0,0,0,1.34-2.68Zm.67,1-.67.34-.34,1Zm1-8.72.67.34a11,11,0,0,1-2.35,4.36A26.31,26.31,0,0,0,272,289Zm1.34,3v-.67h.34v.34Zm.67-1.68v1h-.34Zm0,1.34v-.34h.34Z" transform="translate(-39.45 -126.96)"/><path class="cls-1" d="M312.59,127c9.73,0,20.47,15.44,20.47,24.83,0,13.76-15.44,60.4-20.13,76.17-2.68,9.06-6,18.12-8.72,27.18L286.08,319.9c-6,21.48-10.74,44.29-10.74,66.44,0,6.38,1.34,12.42,3,18.79,1,4,2.68,8.39,3,12.42-1,0-2,.34-3,.34-9.06,0-16.44-6.38-21.48-13.42-6-8.39-6.71-19.46-6.71-29.53,0-41.61,22.15-120.46,35.23-161.74,4-12.42,27.18-70.8,27.18-77.51a12.49,12.49,0,0,0-2.35-6.71A2.88,2.88,0,0,1,312.59,127ZM270.31,358.49c1.68-10.4,3.36-20.47,6-30.87,4-16.11,7.72-32.21,12.08-48.32,6.38-22.48,14.43-44.63,19.8-67.45-4.36,6.71-21.48,69.8-25.17,82.55-6.71,23.15-12.08,47-14.43,71.14A53.69,53.69,0,0,0,270.31,358.49Zm40.6-154a3.94,3.94,0,0,0-1.68,3.69Zm1-3-.67-.34a11.42,11.42,0,0,0-.34,3.36Zm1.68-5.7-.34-.34v.34Z" transform="translate(-39.45 -126.96)"/><path class="cls-1" d="M439.08,215.21c-7.72,9.4-37.58,12.08-49.66,14.09-12.08,39.26-19.13,79.86-25.84,120.46-3.36,21.48-6,43.62-6,65.43a114.18,114.18,0,0,0,3.36,26.17,7.38,7.38,0,0,1,.34,2.68c0,3-4.36,4-6.71,4-1,0-1.34-1-1.68-1.68l-2,3c-4-2-8.39-3-12.42-5C326,438,326,415.2,326,403.46c0-35.23,4.7-71.14,10.07-106,1.34-8.05,2-16.44,3.69-24.5,1.68-9.4,4-18.79,5.37-28.19.34-2.35,1.34-4.36,1.34-6.71,0-1.68-3-1.68-4-1.68-3.36,0-7,.34-10.4.34l.34-.34c-3.36-1-7.72-4.36-10.07-7.38l.34-2-3-1.68c.67-3.36,1.34-4.36,4.7-5.37,7.38-2,15.1-2.68,22.48-4.36,7.38-9.73,14.09-19.8,18.79-31.21,3.69-8.72,9.06-17.11,13.76-25.17,1.34-2.35,2.68-4.36,5.7-4.36l4,2-2.35,5.37c2-2,3.36-4,5-6l1.34,2,2.68-.34-1.68,4.7,2.68-2.35,3.69,1.34v3.36l2.68-.67c2,1.68,5.37,3.36,5.37,6.38,0,1.34-12.08,35.9-12.08,35.9,2.35-.34,5,0,7.38-.67,5.71-1.34,11.41-1.34,17.45-1.34,7,0,8.72,1.34,13.09,7C434.39,214.2,437.07,214.88,439.08,215.21ZM335.4,368.56h-.34v4.36h.34Zm1.34-14.09h-.34v4h.34Zm4.7-33.22-1-.33-3.36,27.85h.67C338.75,339.7,340.09,330.31,341.44,321.25Zm16.11-86.57c-4.7,7.38-15.77,71.14-15.77,81.88v1.68C346.47,290.38,350.5,262.19,357.54,234.67Zm-15.1,148V379.3h-.34v3.36Zm0-8.39h.34v-.67h-.34Zm1.34-13.42h-.34l-.34,6.38h.34Zm1-8.05h-.34c0,1.68-.34,3-.34,4.7h.67Zm.67-5.7v1.68c3-19.46,5.7-38.92,9.4-58.05,3.69-19.46,8.05-38.59,12.08-58.05C360.9,240.38,345.46,333.33,345.46,347.08Zm32.21-115.77-3,.34c-8.39,27.52-13.42,56.37-18.12,84.56-4.36,28.86-9.06,58.39-9.06,87.58a118.84,118.84,0,0,0,.67,15.44C350.83,355.81,361.57,292.72,377.68,231.32Zm-25.17-17.45v.67l1.34-2A1.44,1.44,0,0,0,352.51,213.87Zm2,171.47h-.34v1h.34Zm1-9.06V374.6a2.52,2.52,0,0,0-.34,1.68Zm1.34-11.07v-1h-.34v1Zm1-9.06h-.34v1.34h.34Zm1-7h-.34v1.34Zm1-5a2,2,0,0,1-.34-1.34h-.34a2,2,0,0,0,.34,1.34Zm.67-8.05h-.34v2.35h.34Zm1-5.7h-.34v1.34h.34Zm.34-59.39v1h.34v-1Zm.67,55.37v-2.68h-.34v2.68Zm.34-59.73a3,3,0,0,1-.34,1.68h.34l.34-1.68Zm.67,54v-2h-.67v2Zm0-56.71h.34v-.67Zm1,51.34a3,3,0,0,0-.34-1.68h-.34v1.68Zm0-56.37v1h.34v-1Zm.67,50.67v-1.34h-.34v1.34Zm1-4v-2.35h-.34l-.33,2.35Zm.34-54-.67,1h.67Zm-.34-44.29.34-.34C366.27,206.82,366.27,206.82,366.27,207.16Zm1,93.28a4.25,4.25,0,0,0-.34-2h-.33v2Zm-.34-52,.34.34.67-1.34Zm1,45h-.34v2.68h.34Zm1-2V289h-.34l-.33,2C368.62,291.38,368.62,291.38,369,291.38Zm-.34-48,.67-1.68-.67-.34Zm1,41.27h-.34V287h.34Zm0-46.31V239c.34-.34.34-.34.34-.67Zm1,44v-2h-.34v2Zm1-6L371,278l.67.34Zm1.34-4a1.44,1.44,0,0,0-1.34,1.34c0,.67.33,1,.33,1.68Zm-.33-2c0,.67.33,1,.33,1.68l1-3.36C373.31,268.9,372.64,269.23,372.64,270.24Zm1-59.73c2.68-2.68,3-6.38,3.69-9.73C374.66,203.47,374.32,207.16,373.65,210.51Zm.34,57.72c0-1,.34-2,.34-3h-.67A9.28,9.28,0,0,0,374,268.23Zm1-5v-1.68c-.34.67-.67,1-.67,1.68Zm.33-3.69a1.23,1.23,0,0,0-.33,1l.33-.34Zm.67-2.35.33-1A1.23,1.23,0,0,0,376,257.16Zm1-4-.33.34c0,1-.34,1.68-.34,2.68l.67-2.68Zm1.68-5.37c-1.68,1.34-1.68,3.36-1.68,5.37A32.94,32.94,0,0,0,378.68,247.76Zm-1-47.65c-.34.34-.34.34-.34.67C377.34,200.45,377.68,200.45,377.68,200.11Zm2.68,41.61a5.39,5.39,0,0,0-1.68,3.69,4.26,4.26,0,0,0,.33,2A35.06,35.06,0,0,1,380.36,241.72Zm-1.68,6H379v-.34Zm.67-71.81c.33-.34.33-.34.33-.67C379.69,175.61,379.35,175.61,379.35,176Zm1-3-.67,1.68A2.56,2.56,0,0,0,380.36,172.93Zm.67-1.34-.67,1.34A2.55,2.55,0,0,0,381,171.59Zm-.67,68.79,1-2.35v-1.34A15.11,15.11,0,0,0,380.36,240.38ZM383,232v-1.34l-1.34,3.69A2.25,2.25,0,0,0,383,232Zm12.08-52a49.15,49.15,0,0,1-3.36,4.36c-1.68,3-9.4,22.15-9.4,24.83H383c1.68,0,2.35-1.34,2.68-2.68C389.09,197.76,391.77,189,395.13,180Zm-10.74-13.09a2.54,2.54,0,0,0-.67,1.34A2.55,2.55,0,0,0,384.39,166.89ZM384.05,183l1-.67h-1Zm2-19.8a18,18,0,0,0-1.68,3.69l1.68-3Z" transform="translate(-39.45 -126.96)"/><path class="cls-1" d="M408.21,328.29c-1.34,2.68-1,8.39-1,11.07,0,3.36,1,16.11,5.7,16.11,7,0,12.42-4.7,14.76-10.74l.34-.34v1c0,3-2.68,5.37-3.69,8.05,3.69-1.68,4.36-5,6.38-8.05a5.68,5.68,0,0,1,.67,1.68c0,2.35-2,3.69-2.35,5.7l2.35.34-.34,1,.67.34v-.34h1l-.33-.67h.33l.34-1.34h.34l.67-1.34v1.34a4.31,4.31,0,0,0,1.34-3.36l1.34-1.68c-.67,9.73-9.73,16.11-19.13,16.11-20.47,0-32.55-14.09-32.55-33.89,0-16.11,6.71-32.21,16.11-45.3,7.38-10.4,17.78-16.11,30.53-16.11a42.26,42.26,0,0,1,9.06,1.34L434,256.82l2.68-.67c13.42,4.36,22.48,15.44,22.48,30.2C459.21,310.84,430.36,328.29,408.21,328.29Zm-10.74-26.17c-.33,0-.33,0-.33.34h.33Zm1.68-5-1,1.68.67.34Zm.34-.67-.34.34h.34Zm5.37-9.06,1-.34a1.23,1.23,0,0,0-1,.34L403.18,290l-.67,1v.34a29,29,0,0,0-2.35,3.36c1.68-.67,2-2,2.35-3.36l.67-1.34,1.34-1C404.52,288.36,404.86,288,404.86,287.35Zm-1,25.17a2.51,2.51,0,0,0-.34,1.68h.34Zm12.42-23.15c-4.7,4.7-11.07,14.09-11.07,21.14C407.54,303.13,413.24,296.75,416.26,289.37Zm-11.07,8.72v0Zm1.34-3c.33-.34.33-.67.33-1.34A2.54,2.54,0,0,0,406.53,295.07Zm1.34-2h.34a2.55,2.55,0,0,0,.67-1.34C408.55,292.05,408.21,293.06,407.88,293.06Zm3.69,21.81c12.08-1.34,29.86-21.14,29.86-33.22v-1.34C426.33,283.66,414.25,300.11,411.57,314.87Zm5-25.84,1.34-.67V288l-.33.34C416.94,288.36,416.94,288.7,416.6,289Zm22.82,9.73a2,2,0,0,0-.34,1.34l-1,.67,1-.34v-.33Zm2.35-3.69-.67,1.34v.34C441.43,296.08,441.77,295.74,441.77,295.07Zm1-2a.72.72,0,0,0,.67-.67h-.67Zm1.34,13.42c.34-.33.67-.33.67-.67Zm.67-7.72h.34l.33-1Zm1.34,6.71a1.23,1.23,0,0,0-1,.33A1.23,1.23,0,0,0,446.13,305.48Zm0-.34a28.73,28.73,0,0,0,6.71-12.08C451.5,295.41,446.13,303.13,446.13,305.14Z" transform="translate(-39.45 -126.96)"/><path class="cls-1" d="M457.2,348.09c-4,5.37-8.39,10.74-14.43,14.09l-11.75-4,.67-1a109.38,109.38,0,0,0,14.43-18.46,243.71,243.71,0,0,0,33.56-86.57c-12.75-8.72-30.54-18.46-30.54-36.24,0-9.06,8.05-20.13,17.79-20.13a18.19,18.19,0,0,1,8.39,2c11.07,4.7,17.78,15.1,19.13,26.84.67,7.38,1.68,14.76,2,22.15,11.41,6.71,23.83,13.42,33.56,22.48,5.37,5,8.05,10.74,8.05,18.12,0,10.07-6.38,26.84-9.73,36.91-6,17.78-16.78,45.64-16.78,64.09a34.77,34.77,0,0,0,2.35,13.09l9.4,2.35-.34,2.68.34.34,1.68-2h2.68a8.94,8.94,0,0,1,1,4c0,6.38-10.07,8.39-15.1,8.39-21.81,0-30.54-23.49-30.54-41.94,0-22.48,14.09-59.06,22.15-80.53,2-5,5.7-15.77,5.7-20.8,0-8.05-9.4-11.41-15.44-14.09C491.43,292.72,476.33,321.58,457.2,348.09Zm-1.68-139.26.67.67a12,12,0,0,1,1.34-3.69Zm2,130.87-.34.33h.34Zm2.35-17.45c1.68-1,2.35-3.36,2.68-5.37Zm6.38-113.08a5.85,5.85,0,0,0-2,4,3,3,0,0,0,.33,1.68C465.25,213.2,465.59,211.18,466.26,209.17ZM480,234.34c0-6.38-1.68-20.8-5.37-25.5a15.37,15.37,0,0,0-5.37,11.41c0,7,4.36,15.1,10.4,18.46C479.68,237.36,480,235.68,480,234.34Zm7.72,37.25a411.9,411.9,0,0,1-17.78,48c7-7.72,17.45-38.92,18.79-49.66C488.07,270.24,488.07,270.91,487.74,271.58ZM472,296.08a38.5,38.5,0,0,0,3.69-9.73l-.67.34Zm4.7-14.76a5.34,5.34,0,0,0-1,4.36Zm.67-1.68a1.23,1.23,0,0,0,.33-1ZM478,277a2,2,0,0,1-.34,1.34,2.54,2.54,0,0,0,.67-1.34Zm1-4,1-1.34h-.33Zm1.68-4-.34-.67v1Zm8.72-2.68h-.33v1.34h.33Zm.67-3.69h-.34v1h.34Zm19.46,40.6-16.11,49-3.69,13.42c3-6,5-13.09,7-19.8,5.7-17.79,12.08-35.23,17.11-53.35C511.56,295.07,510.55,299.77,509.55,303.13Zm-12.08,68.79c0-.67-.33-1-.33-1.68a3,3,0,0,0-.34,1.68Zm21.48-73.82L502.5,346.41c-2.35,7.38-3.36,15.44-5,22.82l.67-.67c3-10.07,5.37-20.47,8.72-30.54,4.36-13.42,10.74-26.84,13.09-40.94Zm-13.76,73.15c3.36-16.78,9.4-33.22,15.1-49.66,3.36-10.07,7.72-20.47,8.72-31.21h-.67c-8.05,22.48-15.44,45.64-22.48,68.45a70.68,70.68,0,0,0-3.36,20.47,36.44,36.44,0,0,0,.34,6C503.84,380.64,504.18,375.94,505.19,371.24Zm-.67-15.77v-.33l-.34.33Zm3.36-12.08.34-.33h-.34Zm.67-2.68.34.33v-.33Zm.34,32.21h-.34c0,.34,0,.34.34.67Zm.33-34.23.34.33v-.33Zm.34,30.87h-.34v.67h.34Zm2-7.38h.33v-1h-.33Zm1-4h-.34v1h.34Zm1.34-32.88-.34.34h.34Zm0,28.52c-.34,0-.34.34-.34.67h.34Zm.34-63.42v1.34a2,2,0,0,0,.33-1.34Zm.33,61.07-.33.34h.33Zm.34-2.35.67.33a1.23,1.23,0,0,0-.34-1Zm1.34-3h-.33v1h.33Zm2-6.37h-.34c0,.33,0,.33.34.33Zm.67-28.86-.34.34h.34Zm0,26.84c-.34,0-.34,0-.34.34Zm1.68-42.28H520v1Zm-.33,38.25.33-.34h-.33Zm.67-2c.33,0,.33-.34.33-.67H521Zm.67-2.35H522v-.67h-.34Zm4-10.74h-.33v.67h.33Zm.34-1.68h.34v-.33H526Zm.67-2.68.34.34v-.34Zm4.7-13.09v-.34l-.34.34Z" transform="translate(-39.45 -126.96)"/><path class="cls-1" d="M606.52,127c9.73,0,20.47,15.44,20.47,24.83,0,13.76-15.44,60.4-20.13,76.17-2.68,9.06-6,18.12-8.72,27.18L580,319.9c-6,21.48-10.74,44.29-10.74,66.44,0,6.38,1.34,12.42,3,18.79,1,4,2.68,8.39,3,12.42-1,0-2,.34-3,.34-9.06,0-16.44-6.38-21.48-13.42-6-8.39-6.71-19.46-6.71-29.53,0-41.61,22.15-120.46,35.23-161.74,4-12.42,27.18-70.8,27.18-77.51a12.48,12.48,0,0,0-2.35-6.71A2.88,2.88,0,0,1,606.52,127ZM564.24,358.49c1.68-10.4,3.36-20.47,6-30.87,4-16.11,7.72-32.21,12.08-48.32,6.38-22.48,14.43-44.63,19.8-67.45-4.36,6.71-21.48,69.8-25.17,82.55-6.71,23.15-12.08,47-14.43,71.14A53.77,53.77,0,0,0,564.24,358.49Zm40.6-154a3.94,3.94,0,0,0-1.68,3.69Zm1-3-.67-.34a11.4,11.4,0,0,0-.34,3.36Zm1.68-5.7-.33-.34v.34Z" transform="translate(-39.45 -126.96)"/><path class="cls-1" d="M697.79,325.27c-7.38,17.45-23.83,47.31-38.59,59.06-7.38-2.68-12.75-3.36-12.75-12.75,0-18.12,4-35.91,7.72-53.69l-11.41,11.74c-7,7.38-16.78,21.48-28.52,21.48-8.39,0-20.8-7.72-20.8-17.11,0-19.8,21.14-55.7,37.25-67.11,6.71-4.7,15.1-9.4,23.49-9.4s15.44,4.7,21.48,10.4a4.14,4.14,0,0,1,1.34,2.68,4.78,4.78,0,0,1-.67,2l-9.73-2.68c-24.16,8.39-36.24,35.57-46,57.38l.67.67,5.37-4,32.21-28.86c6-5.37,7-12.42,14.76-15.44L674,283l-1,.34c-.67,1.34,0,1-1.34,2.35l1-.34.33-1.68,1-.67a2.27,2.27,0,0,1,2-1.34,2.85,2.85,0,0,1,1.68,1l-.34,2.35,1.34-.67V284l1.68.67c-2.68,8.39-5.71,16.44-8.72,24.5l-.34.34c.34,0,.34,0,.34-.34.34-.33,1-.67,1-1.34,3.36-7.38,6-15.1,9.73-22.15,1.68.34,3,1.34,3,3,0,2.35-1,4.7-1.68,6.71-4.36,12.08-19.13,53.69-19.13,64.43,4.36-2.68,7.72-7.38,11.07-11.07h.67c-4.36,6.38-10.4,11.74-13.42,18.79h-.33v.34c.33,0,.33,0,.33-.34,6-6,11.41-13.42,16.78-20.13,1.34-1.68,2.68-4.36,4.36-6l1.68-1.68c-7,12.08-18.12,23.15-24.16,35.57l10.74-12.42-3,5.7,2.35-1.68.34,1.34c.33-1.68,2-3.69,3-5.37h.34v-.34l-.34.34h-.67c1-2.68,1.34-4.36,3.69-6v1.34l.67-1.34,1-.67.67-1.34c.67-2.68,3.36-4.7,4.36-7.38a39.9,39.9,0,0,1,3-5h-.33l.67-1.34h-.34l2-3.69.34,1.34a17.33,17.33,0,0,1,2-4.36h-.33l1-.67a11.91,11.91,0,0,0,1.34-3V331A54.6,54.6,0,0,1,697.79,325.27ZM604.5,314.54c0,.34-.33.67-.33,1h.33Zm2-4c4.36-7.38,8.39-15.44,13.09-22.48,1-1.34,4-5,4-6.71l-.67,1.34c-4.7,4.7-15.1,22.82-17.45,29.19a2.56,2.56,0,0,0-.67,1.68l.67-1.68C605.84,311.52,606.51,311.18,606.51,310.51Zm3.36,6.71,1-2.35c-.67.33-.67,1.68-1.34,2.35Zm.67,15.77a2,2,0,0,0-.34,1.34h.34Zm27.85-51c-8.72,5.37-21.48,29.19-24.83,38.92-1.34,3.69-2,7.72-3,11.41a5.41,5.41,0,0,0,1.34-2.35C618.26,313.19,627,295.74,638.39,282Zm-26.51,29.86c3.36-6.37,7.38-12.08,11.07-18.12v-.67A95.38,95.38,0,0,0,611.88,311.85Zm12.75-31.54,1-.67h-.33Zm1.68,8.05H627V288C626.65,288.36,626.65,288.36,626.31,288.36ZM628,286h.33v-.34C628,285.68,628,285.68,628,286Zm33.56,59.73h.33v-.67h-.33Zm1.34,31.54a.72.72,0,0,0-.67.67Zm0-38.25.34.67v-1Zm2.68,34.9-2.35,3C664.23,375.94,665.57,375.61,665.57,373.93Zm-1-40.6h.34v-1.68A3,3,0,0,0,664.57,333.33Zm.34-3,.67-1.34h-.34Zm.67-1.68c1.68-2,2-4.36,2.35-6.71A53.21,53.21,0,0,0,665.57,328.63Zm.67,46.31c-.33,0-.33.33-.67.33C665.91,375.27,666.24,375.27,666.24,374.94Zm1.34-2.35c0-.67.33-1.34.33-2l-2,3Zm0-79.86,2.68-5A12.1,12.1,0,0,0,667.59,292.72Zm.67,79.19-.34.34C668.26,372.25,668.26,372.25,668.26,371.92Zm.33-52.68a1.23,1.23,0,0,0-.33,1Zm1,52.35c-.33,0-.33.33-.67.33h.67Zm0-55.7a2.52,2.52,0,0,0-.33,1.68l.33-.67Zm2.35,52.68h-.34l-1,.67h.34Zm1-76.51a3.38,3.38,0,0,1,.34,1l1.34-2.68C673.63,290.71,673,291,673,292.05Zm1.68-2a3,3,0,0,0,.34-1.68A3,3,0,0,0,674.63,290ZM678,358.49a2,2,0,0,0-.34,1.34A2,2,0,0,0,678,358.49Z" transform="translate(-39.45 -126.96)"/><path class="cls-1" d="M726.64,309.84c4.7-3.36,7-9.06,10.74-13.42,8.72-10.74,27.51-28.19,41.94-28.19,14.09,0,22.15,17.78,22.15,29.86,0,1.34-.34,2.68-.34,4C798.45,333,782.68,364.87,754.49,380a20.23,20.23,0,0,1-9.73,2.68c-8.72,0-20.13-9.73-20.13-18.79,0-8.72,9.4-20.13,17.45-22.82l-1.68,2.68v.67l-2,3.69a25.35,25.35,0,0,0,4.7-3.69,2.27,2.27,0,0,1,1.34,2c0,1-1,2.35-1.34,3l4.36-1.68-2.35,5.37c22.82-13.42,41.61-45.3,44.29-71.47-1.68-1-3.69-1-5.7-1-4,0-8.72,2-12.42,3.69-26.51,12.75-48.32,54.36-54,82.21h-2l-1.68,2.68c-10.07-3.36-16.11-10.74-16.11-21.48,0-12.75,3.69-25.5,7-37.58,6-21.14,42.28-147,57.38-147a6.22,6.22,0,0,1,2.35.67,12.64,12.64,0,0,0,3,5c3.36,4,4.36,11.07,4.36,16.11,0,6-14.43,39.26-17.45,47-10.4,25.5-19.13,51.68-27.85,77.85l.34.34Zm8.72-6.71a1.74,1.74,0,0,0-.67,1.34Zm31.88-28.52c-8.72,4.36-22.82,16.11-28.19,24.16l14.76-14.43c2.68-2.68,13.09-8.39,14.43-10.07Zm-21.48,26.17c3.69-3.36,7-7.38,10.74-10.74a110.81,110.81,0,0,1,10.07-7.38A77.17,77.17,0,0,0,745.77,300.78Zm5.7-8.39a4.66,4.66,0,0,0-4,4.36Zm14.76,50.33c-3,4.7-11.74,13.42-16.44,16.78,5.7-3.36,8.72-7.38,13.42-12.08,1.34-1.34,3-1.68,3-4Zm-14.43,30.2.33-.67c0,.33-.33.33-.67.33Zm4-85.9h-.67l-2.35,2.35v1.34a23.83,23.83,0,0,1,4.7-3.36A3,3,0,0,1,755.84,287Zm-2.35,84.9c11.74-6.71,20.13-15.1,26.17-27.18-7.38,10.4-17.11,19.13-26.84,27.18ZM760.2,285l.67-1a3,3,0,0,0,1.68-.34h-1.68l-.33-.67-.34.67a1.84,1.84,0,0,0-2,1.34l-1,.67v.67a1.23,1.23,0,0,1,.34,1,1.23,1.23,0,0,0,.34-1A8.4,8.4,0,0,1,760.2,285Zm.67,73.15a4.66,4.66,0,0,0-2.68,2.35Zm6-5.7v-.34l-6,6Zm-4-70.13.33.34a2,2,0,0,0,1.34-.34Zm1.68,76.51h-.34v.34Zm2-76.17a25.39,25.39,0,0,0,6-3Zm.33-2a2.54,2.54,0,0,0,1.34-.67Zm6-7.72a1.23,1.23,0,0,1-.34-1l-3.69,2Zm1.68,85.9h-.33v.34Z" transform="translate(-39.45 -126.96)"/></svg>